<svg width="48" height="49" viewBox="0 0 48 49" fill="none" xmlns="http://www.w3.org/2000/svg">
<g clip-path="url(#clip0_1_6822)">
<rect x="-0.00012207" y="0.305908" width="48" height="48" rx="24" fill="#EBF4FF"/>
<path d="M39.7382 42.7859C30.3008 50.0524 17.1374 49.9943 7.76453 42.6447L14.6342 39.4244C14.9613 39.2707 15.2753 39.0903 15.573 38.8852C15.6633 38.823 15.7537 38.7581 15.8398 38.6903C16.5875 38.1183 17.2029 37.3916 17.6441 36.56C17.9776 35.921 18.1991 35.2296 18.2991 34.5157C18.3681 34.0526 18.403 33.585 18.4036 33.1167C18.4036 32.3092 18.3598 31.5016 18.3513 30.6927C18.3457 30.2447 18.341 29.7972 18.3372 29.3501L18.6196 29.4913L19.3537 29.871L19.6939 29.9289L23.6299 30.5981L28.0233 31.3463L28.1561 35.864L28.1998 37.3407L28.221 38.0579V38.1045L29.9292 38.799L39.7382 42.7859Z" fill="#E18477"/>
<path d="M28.2149 37.9308C27.7297 38.0142 27.2304 37.9369 26.7932 37.7105L18.3692 30.8197C18.3593 30.5006 18.3509 30.8352 18.3466 30.5162C18.341 30.0691 18.3363 29.6216 18.3325 29.1736L18.6149 29.3148L19.349 29.6945L19.6892 29.7524L23.6252 30.4216L28.0186 31.1698L28.1513 35.6875L28.1951 37.1642L28.2163 37.8813V37.9279L28.2149 37.9308Z" fill="#A76962"/>
<path d="M34.5146 15.0403C36.9367 16.4124 38.8442 18.5381 39.9471 21.094C39.0096 21.1699 38.0853 21.3624 37.1955 21.6671H37.1871C36.9555 21.7462 36.7259 21.8333 36.4981 21.9283L36.3569 21.989L36.1325 22.0878C36.0577 22.1203 35.9828 22.1556 35.9094 22.1923C35.836 22.229 35.7682 22.2643 35.6878 22.3024C35.6073 22.3406 35.5466 22.3773 35.4689 22.4168C35.3913 22.4563 35.3405 22.486 35.2769 22.5227C35.1245 22.6074 34.9748 22.6963 34.828 22.7881C34.7697 22.8238 34.7118 22.8606 34.6544 22.8982C34.0882 23.2647 33.5566 23.6819 33.0661 24.1448C32.4464 24.7307 31.8675 25.4041 31.2308 26.0055C30.6848 26.5559 30.0452 27.0048 29.3419 27.3311C27.981 27.917 26.4068 28.2558 24.9937 28.7429L18.3584 31.037C18.3584 30.9326 17.6073 30.19 16.6642 29.285C14.1823 26.9255 12.7443 23.6734 12.669 20.2497C12.4402 9.90714 24.5899 6.8662 32.8572 9.08267C34.1704 9.43628 35.4193 9.99568 36.5574 10.7401C37.3112 11.2275 38.0008 11.8075 38.6101 12.4667C39.3212 13.2317 39.8922 14.1157 40.2972 15.0784L40.1857 15.0587C38.3116 14.7131 36.3908 14.7069 34.5146 15.0403Z" fill="url(#paint0_linear_1_6822)"/>
<path d="M39.947 21.0941C39.0095 21.17 38.0852 21.3626 37.1955 21.6673H37.187C36.9527 21.7416 36.7227 21.8288 36.498 21.9285L36.3569 21.9892L36.1296 22.0908C36.0547 22.1247 35.9813 22.1586 35.9065 22.1953C35.8317 22.232 35.7653 22.2673 35.6849 22.3054C35.6044 22.3435 35.5437 22.3802 35.466 22.4198C35.3884 22.4593 35.3376 22.4889 35.274 22.5257C35.1216 22.6104 34.9719 22.6993 34.8251 22.7911L34.6515 22.9012C34.0853 23.2676 33.5537 23.6849 33.0632 24.1478C32.4435 24.7337 31.8646 25.4071 31.2279 26.0085C31.0218 26.0932 30.8171 26.1821 30.6124 26.2711C30.6378 26.2598 30.45 23.8711 30.4557 23.6297C30.4793 22.7073 30.5846 21.7889 30.7705 20.8852C31.1291 19.1473 30.9004 17.5308 31.2463 15.7492C31.3193 15.3515 31.4136 14.958 31.5286 14.5704C32.1187 14.1299 32.9404 13.9944 33.6562 13.8913C35.3715 13.6442 37.1362 13.8786 38.7865 14.3981C39.0594 14.4845 39.3276 14.5854 39.5898 14.7002C39.714 14.7553 39.8355 14.8146 39.9555 14.8781C40.0613 14.9578 40.1759 15.0251 40.2971 15.0786C38.3849 14.7258 36.4255 14.7129 34.5089 15.0405C36.933 16.4116 38.8427 18.5374 39.947 21.0941Z" fill="url(#paint1_linear_1_6822)"/>
<ellipse cx="16.9481" cy="25.3956" rx="2.4" ry="2.4" fill="#E18477"/>
<ellipse cx="17.7083" cy="25.3955" rx="2.14871" ry="2.14871" fill="#A76962"/>
<path d="M17.7415 23.1312L18.3598 31.1782L27.7396 36.6587C29.0862 37.161 30.594 36.5586 31.2238 35.2667C32.5735 32.5025 34.7391 28.1387 34.4539 26.5138C34.0304 24.1138 32.901 23.2667 32.901 23.2667C33.0582 22.3255 33.2144 21.3872 33.3697 20.4516C33.5476 19.3914 33.7735 18.2846 33.5109 17.2187C33.2102 15.9975 32.2869 15.4752 31.5273 14.5618C29.5283 17.1368 26.2417 18.5924 23.3716 20.0676C21.8892 20.8469 17.7415 23.1312 17.7415 23.1312Z" fill="#E18477"/>
<path d="M22.2656 21.4666C23.5729 21.1986 24.9172 21.1627 26.2369 21.3607" stroke="#00214E" stroke-width="0.198265"/>
<path d="M30.6028 21.482C31.4098 21.2956 32.2413 21.2379 33.0663 21.3112" stroke="#00214E" stroke-width="0.198265"/>
<path d="M27.3515 26.9148C27.1407 27.0227 27.0401 27.268 27.1144 27.4928C27.1888 27.7175 27.4159 27.8546 27.6493 27.8155" stroke="#00214E" stroke-width="0.198265"/>
<path d="M29.8992 25.455C29.8992 25.455 29.9401 26.2526 30.1279 26.6267C30.2084 26.7877 30.334 26.9232 30.4103 27.0841C30.7223 27.6954 30.2183 27.8253 29.7312 27.8253" stroke="#00214E" stroke-width="0.198265"/>
<path d="M39.7382 42.7859C30.3008 50.0524 17.1374 49.9943 7.76453 42.6447L14.6342 39.4245C14.9613 39.2707 15.2753 39.0903 15.573 38.8852C15.6633 38.823 15.7537 38.7581 15.8398 38.6903C16.5875 38.1183 17.2029 37.3916 17.6441 36.56C17.9776 35.921 18.1991 35.2296 18.2991 34.5157C18.3988 34.6124 18.5034 34.7038 18.6125 34.7896C19.4782 35.4297 20.4176 35.9634 21.4106 36.3793C21.8928 36.5804 22.3858 36.7543 22.8873 36.9002C24.3985 37.3409 25.9763 37.5077 27.5462 37.3929C27.7636 37.376 27.9824 37.3548 28.1998 37.3393L28.221 38.0565V38.103L29.9292 38.7976L39.7382 42.7859Z" fill="#00214E"/>
<circle cx="25.2197" cy="23.5841" r="2.68235" stroke="white" stroke-width="0.198265"/>
<ellipse cx="32.7217" cy="23.1607" rx="2.68235" ry="2.68235" stroke="white" stroke-width="0.198265"/>
<path d="M27.9016 23.5843L30.039 23.4008" stroke="white" stroke-width="0.198265"/>
<path d="M25.0191 29.4403C25.0584 29.3785 25.1216 29.3358 25.1936 29.3224C25.2656 29.3091 25.34 29.3262 25.3989 29.3697C25.6911 29.5759 26.229 30.0135 26.9913 30.1646C28.0304 30.3721 28.9311 29.9556 29.1471 30.2239C29.2685 30.3749 29.1203 30.5599 28.8365 30.7956C28.2357 31.2443 27.4795 31.4321 26.7386 31.3166C25.7391 31.1288 24.988 29.9712 24.988 29.5603C24.9883 29.5184 24.9989 29.4771 25.0191 29.4403Z" fill="white"/>
<ellipse cx="24.5877" cy="23.5592" rx="0.461647" ry="1.12094" transform="rotate(-85.77 24.5877 23.5592)" fill="#00214E"/>
<ellipse cx="31.8598" cy="23.3304" rx="1.12094" ry="0.461647" transform="rotate(-8.85999 31.8598 23.3304)" fill="#00214E"/>
</g>
<defs>
<linearGradient id="paint0_linear_1_6822" x1="28.6488" y1="33.4422" x2="45.3334" y2="12.7522" gradientUnits="userSpaceOnUse">
<stop stop-color="#16243F"/>
<stop offset="1" stop-color="#6878B1"/>
</linearGradient>
<linearGradient id="paint1_linear_1_6822" x1="30.4571" y1="26.2707" x2="40.2971" y2="26.2707" gradientUnits="userSpaceOnUse">
<stop stop-color="#16243F"/>
<stop offset="1" stop-color="#6878B1"/>
</linearGradient>
<clipPath id="clip0_1_6822">
<rect x="-0.00012207" y="0.305908" width="48" height="48" rx="24" fill="white"/>
</clipPath>
</defs>
</svg>
